<svg width="108" height="107" viewBox="0 0 108 107" fill="none" xmlns="http://www.w3.org/2000/svg">
<path d="M0 89.8403L26.292 77.3542L26.292 87.3432L1.74313e-05 99.8292L0 89.8403Z" fill="#F24D20"/>
<path d="M0.154907 70.5463L26.4469 58.0602L26.4469 68.0492L0.154925 80.5352L0.154907 70.5463Z" fill="#F24D20"/>
<path d="M0.154907 51.1931L26.4469 38.707L26.4469 48.696L0.154925 61.182L0.154907 51.1931Z" fill="#F24D20"/>
<path d="M32.372 74.857L66.0357 58.6251L66.0357 68.614L32.372 84.8459L32.372 74.857Z" fill="#F24D20"/>
<path d="M32.5269 55.5629L66.1906 39.331L66.1906 49.3198L32.5269 65.5518L32.5269 55.5629Z" fill="#F24D20"/>
<path d="M32.5269 36.2098L66.1906 19.9779L66.1906 29.9668L32.5269 46.1987L32.5269 36.2098Z" fill="#F24D20"/>
<path d="M72.0345 55.5037L107.614 38.6475V48.6363L72.0345 65.4926L72.0345 55.5037Z" fill="#F24D20"/>
<path d="M72.1894 36.2096L107.769 19.3533V29.3422L72.1894 46.1985L72.1894 36.2096Z" fill="#F24D20"/>
<path d="M72.1894 16.8562L107.769 0V9.98887L72.1894 26.8451L72.1894 16.8562Z" fill="#F24D20"/>
<path d="M71.4686 76.6197L107.314 59.938L107.314 106.271H71.4686V76.6197Z" fill="#F24D20"/>
<path d="M32.29 94.5837L65.9193 79.2871V106.118H32.29L32.29 94.5837Z" fill="#F24D20"/>
<path d="M9.66669 106.156L26.1756 98.0164L26.3177 106.156L9.66669 106.156Z" fill="#F24D20"/>
</svg>
